<svg xmlns="http://www.w3.org/2000/svg" xmlns:xlink="http://www.w3.org/1999/xlink" width="500" zoomAndPan="magnify" viewBox="0 0 375 112.499997" height="150" preserveAspectRatio="xMidYMid meet" version="1.0"><defs><g/><clipPath id="026f0a2be6"><path d="M 98 6 L 154 6 L 154 71 L 98 71 Z M 98 6 " clip-rule="nonzero"/></clipPath><clipPath id="9742daaa37"><path d="M 51.136719 33.792969 L 126.699219 -10.050781 L 167.921875 60.988281 L 92.359375 104.835938 Z M 51.136719 33.792969 " clip-rule="nonzero"/></clipPath><clipPath id="96292be74f"><path d="M 51.136719 33.792969 L 126.699219 -10.050781 L 167.921875 60.988281 L 92.359375 104.835938 Z M 51.136719 33.792969 " clip-rule="nonzero"/></clipPath><clipPath id="594846e7f0"><path d="M 112 29 L 168 29 L 168 93 L 112 93 Z M 112 29 " clip-rule="nonzero"/></clipPath><clipPath id="022c0cd61a"><path d="M 51.136719 33.792969 L 126.699219 -10.050781 L 167.921875 60.988281 L 92.359375 104.835938 Z M 51.136719 33.792969 " clip-rule="nonzero"/></clipPath><clipPath id="57b381a5ce"><path d="M 51.136719 33.792969 L 126.699219 -10.050781 L 167.921875 60.988281 L 92.359375 104.835938 Z M 51.136719 33.792969 " clip-rule="nonzero"/></clipPath><clipPath id="eb972e3873"><path d="M 84.875 44.761719 L 140.113281 12.710938 L 168.105469 60.945312 L 112.867188 93 Z M 84.875 44.761719 " clip-rule="nonzero"/></clipPath><clipPath id="1ece0b6c3b"><path d="M 84.875 44.761719 L 139.960938 12.800781 L 167.910156 60.960938 L 112.824219 92.925781 Z M 84.875 44.761719 " clip-rule="nonzero"/></clipPath><clipPath id="6574e96ab4"><path d="M 85 30 L 142 30 L 142 94 L 85 94 Z M 85 30 " clip-rule="nonzero"/></clipPath><clipPath id="a44f8dbf6b"><path d="M 51.136719 33.792969 L 126.699219 -10.050781 L 167.921875 60.988281 L 92.359375 104.835938 Z M 51.136719 33.792969 " clip-rule="nonzero"/></clipPath><clipPath id="fc1d2a5f6f"><path d="M 51.136719 33.792969 L 126.699219 -10.050781 L 167.921875 60.988281 L 92.359375 104.835938 Z M 51.136719 33.792969 " clip-rule="nonzero"/></clipPath><clipPath id="3a8997a2f2"><path d="M 29 44 L 85 44 L 85 109 L 29 109 Z M 29 44 " clip-rule="nonzero"/></clipPath><clipPath id="c50b89a799"><path d="M 131.792969 81.828125 L 55.886719 125.074219 L 15.226562 53.707031 L 91.136719 10.464844 Z M 131.792969 81.828125 " clip-rule="nonzero"/></clipPath><clipPath id="cb6b91754c"><path d="M 131.792969 81.828125 L 55.886719 125.074219 L 15.226562 53.707031 L 91.136719 10.464844 Z M 131.792969 81.828125 " clip-rule="nonzero"/></clipPath><clipPath id="bb796ec208"><path d="M 15 22 L 71 22 L 71 87 L 15 87 Z M 15 22 " clip-rule="nonzero"/></clipPath><clipPath id="61b3e69fe0"><path d="M 131.792969 81.828125 L 55.886719 125.074219 L 15.226562 53.707031 L 91.136719 10.464844 Z M 131.792969 81.828125 " clip-rule="nonzero"/></clipPath><clipPath id="a7a28fd588"><path d="M 131.792969 81.828125 L 55.886719 125.074219 L 15.226562 53.707031 L 91.136719 10.464844 Z M 131.792969 81.828125 " clip-rule="nonzero"/></clipPath><clipPath id="aa7fac7ccf"><path d="M 98.140625 70.59375 L 42.652344 102.207031 L 15.046875 53.75 L 70.535156 22.136719 Z M 98.140625 70.59375 " clip-rule="nonzero"/></clipPath><clipPath id="983e34f898"><path d="M 98.140625 70.59375 L 42.804688 102.117188 L 15.242188 53.734375 L 70.578125 22.210938 Z M 98.140625 70.59375 " clip-rule="nonzero"/></clipPath><clipPath id="848313c172"><path d="M 41 21 L 98 21 L 98 86 L 41 86 Z M 41 21 " clip-rule="nonzero"/></clipPath><clipPath id="23dd5969e9"><path d="M 131.792969 81.828125 L 55.886719 125.074219 L 15.226562 53.707031 L 91.136719 10.464844 Z M 131.792969 81.828125 " clip-rule="nonzero"/></clipPath><clipPath id="7fac3bd8fd"><path d="M 131.792969 81.828125 L 55.886719 125.074219 L 15.226562 53.707031 L 91.136719 10.464844 Z M 131.792969 81.828125 " clip-rule="nonzero"/></clipPath></defs><g fill="#022135" fill-opacity="1"><g transform="translate(186.938665, 54.943672)"><g><path d="M 23.421875 0 L 17.59375 0 L 17.59375 -8.890625 L 8.109375 -8.890625 L 8.109375 0 L 2.296875 0 L 2.296875 -22.890625 L 8.109375 -22.890625 L 8.109375 -13.46875 L 17.59375 -13.46875 L 17.59375 -22.890625 L 23.421875 -22.890625 Z M 23.421875 0 "/></g></g></g><g fill="#022135" fill-opacity="1"><g transform="translate(212.638414, 54.943672)"><g><path d="M 20.203125 -18.3125 L 8.109375 -18.3125 L 8.109375 -13.765625 L 19.03125 -13.765625 L 19.03125 -9.1875 L 8.109375 -9.1875 L 8.109375 -4.578125 L 20.5625 -4.578125 L 20.5625 0 L 2.296875 0 L 2.296875 -22.890625 L 20.203125 -22.890625 Z M 20.203125 -18.3125 "/></g></g></g><g fill="#022135" fill-opacity="1"><g transform="translate(234.676108, 54.943672)"><g><path d="M 8.109375 -4.875 L 17.828125 -4.875 L 17.828125 0 L 2.296875 0 L 2.296875 -22.890625 L 8.109375 -22.890625 Z M 8.109375 -4.875 "/></g></g></g><g fill="#022135" fill-opacity="1"><g transform="translate(252.986365, 54.943672)"><g><path d="M 8.109375 -4.875 L 17.828125 -4.875 L 17.828125 0 L 2.296875 0 L 2.296875 -22.890625 L 8.109375 -22.890625 Z M 8.109375 -4.875 "/></g></g></g><g fill="#022135" fill-opacity="1"><g transform="translate(271.296623, 54.943672)"><g><path d="M 13.140625 -23.09375 C 16.703125 -23.09375 19.660156 -21.984375 22.015625 -19.765625 C 24.367188 -17.554688 25.546875 -14.796875 25.546875 -11.484375 C 25.546875 -8.140625 24.359375 -5.34375 21.984375 -3.09375 C 19.617188 -0.851562 16.671875 0.265625 13.140625 0.265625 C 9.609375 0.265625 6.664062 -0.847656 4.3125 -3.078125 C 1.957031 -5.316406 0.78125 -8.117188 0.78125 -11.484375 C 0.78125 -14.816406 1.957031 -17.582031 4.3125 -19.78125 C 6.664062 -21.988281 9.609375 -23.09375 13.140625 -23.09375 Z M 13.21875 -18.21875 C 11.425781 -18.21875 9.894531 -17.566406 8.625 -16.265625 C 7.363281 -14.972656 6.734375 -13.363281 6.734375 -11.4375 C 6.734375 -9.519531 7.367188 -7.898438 8.640625 -6.578125 C 9.921875 -5.265625 11.441406 -4.609375 13.203125 -4.609375 C 14.972656 -4.609375 16.472656 -5.265625 17.703125 -6.578125 C 18.941406 -7.898438 19.5625 -9.519531 19.5625 -11.4375 C 19.5625 -13.363281 18.941406 -14.972656 17.703125 -16.265625 C 16.472656 -17.566406 14.976562 -18.21875 13.21875 -18.21875 Z M 13.21875 -18.21875 "/></g></g></g><g fill="#022135" fill-opacity="1"><g transform="translate(297.617608, 54.943672)"><g/></g></g><g fill="#022135" fill-opacity="1"><g transform="translate(305.203281, 54.943672)"><g><path d="M 13.015625 -23.09375 C 14.710938 -23.09375 16.382812 -22.742188 18.03125 -22.046875 C 19.675781 -21.347656 21.078125 -20.410156 22.234375 -19.234375 L 18.875 -15.234375 C 18.132812 -16.148438 17.242188 -16.875 16.203125 -17.40625 C 15.171875 -17.945312 14.140625 -18.21875 13.109375 -18.21875 C 11.304688 -18.21875 9.789062 -17.578125 8.5625 -16.296875 C 7.34375 -15.023438 6.734375 -13.453125 6.734375 -11.578125 C 6.734375 -9.660156 7.34375 -8.054688 8.5625 -6.765625 C 9.789062 -5.484375 11.304688 -4.84375 13.109375 -4.84375 C 14.066406 -4.84375 15.0625 -5.082031 16.09375 -5.5625 C 17.132812 -6.039062 18.0625 -6.691406 18.875 -7.515625 L 22.265625 -3.921875 C 21.023438 -2.660156 19.5625 -1.644531 17.875 -0.875 C 16.1875 -0.113281 14.5 0.265625 12.8125 0.265625 C 9.375 0.265625 6.507812 -0.851562 4.21875 -3.09375 C 1.925781 -5.34375 0.78125 -8.148438 0.78125 -11.515625 C 0.78125 -14.804688 1.945312 -17.554688 4.28125 -19.765625 C 6.613281 -21.984375 9.523438 -23.09375 13.015625 -23.09375 Z M 13.015625 -23.09375 "/></g></g></g><g fill="#022135" fill-opacity="1"><g transform="translate(327.82952, 54.943672)"><g><path d="M 17.5 -4.21875 L 7.484375 -4.21875 L 5.828125 0 L -0.15625 0 L 9.71875 -22.890625 L 15.703125 -22.890625 L 25.34375 0 L 19.125 0 Z M 15.796875 -8.640625 L 12.53125 -17.109375 L 9.1875 -8.640625 Z M 15.796875 -8.640625 "/></g></g></g><g fill="#022135" fill-opacity="1"><g transform="translate(208.446001, 80.148417)"><g><path d="M 8.421875 -14.9375 C 9.523438 -14.9375 10.609375 -14.707031 11.671875 -14.25 C 12.734375 -13.800781 13.640625 -13.195312 14.390625 -12.4375 L 12.203125 -9.859375 C 11.722656 -10.453125 11.148438 -10.921875 10.484375 -11.265625 C 9.816406 -11.609375 9.148438 -11.78125 8.484375 -11.78125 C 7.316406 -11.78125 6.335938 -11.367188 5.546875 -10.546875 C 4.753906 -9.722656 4.359375 -8.703125 4.359375 -7.484375 C 4.359375 -6.242188 4.753906 -5.207031 5.546875 -4.375 C 6.335938 -3.539062 7.316406 -3.125 8.484375 -3.125 C 9.109375 -3.125 9.753906 -3.28125 10.421875 -3.59375 C 11.085938 -3.90625 11.679688 -4.328125 12.203125 -4.859375 L 14.40625 -2.53125 C 13.601562 -1.71875 12.65625 -1.0625 11.5625 -0.5625 C 10.46875 -0.0703125 9.378906 0.171875 8.296875 0.171875 C 6.066406 0.171875 4.207031 -0.550781 2.71875 -2 C 1.238281 -3.457031 0.5 -5.273438 0.5 -7.453125 C 0.5 -9.578125 1.253906 -11.351562 2.765625 -12.78125 C 4.273438 -14.21875 6.160156 -14.9375 8.421875 -14.9375 Z M 8.421875 -14.9375 "/></g></g></g><g fill="#022135" fill-opacity="1"><g transform="translate(223.083664, 80.148417)"><g><path d="M 11.3125 -2.734375 L 4.84375 -2.734375 L 3.765625 0 L -0.109375 0 L 6.28125 -14.8125 L 10.15625 -14.8125 L 16.390625 0 L 12.375 0 Z M 10.21875 -5.578125 L 8.109375 -11.0625 L 5.9375 -5.578125 Z M 10.21875 -5.578125 "/></g></g></g><g fill="#022135" fill-opacity="1"><g transform="translate(239.37124, 80.148417)"><g/></g></g><g fill="#022135" fill-opacity="1"><g transform="translate(244.278661, 80.148417)"><g><path d="M 8.5 -14.9375 C 10.800781 -14.9375 12.710938 -14.21875 14.234375 -12.78125 C 15.753906 -11.351562 16.515625 -9.566406 16.515625 -7.421875 C 16.515625 -5.265625 15.75 -3.457031 14.21875 -2 C 12.695312 -0.550781 10.789062 0.171875 8.5 0.171875 C 6.21875 0.171875 4.3125 -0.550781 2.78125 -2 C 1.257812 -3.445312 0.5 -5.253906 0.5 -7.421875 C 0.5 -9.578125 1.257812 -11.367188 2.78125 -12.796875 C 4.3125 -14.222656 6.21875 -14.9375 8.5 -14.9375 Z M 8.546875 -11.78125 C 7.390625 -11.78125 6.398438 -11.359375 5.578125 -10.515625 C 4.765625 -9.679688 4.359375 -8.644531 4.359375 -7.40625 C 4.359375 -6.164062 4.769531 -5.117188 5.59375 -4.265625 C 6.414062 -3.410156 7.398438 -2.984375 8.546875 -2.984375 C 9.691406 -2.984375 10.660156 -3.410156 11.453125 -4.265625 C 12.253906 -5.117188 12.65625 -6.164062 12.65625 -7.40625 C 12.65625 -8.644531 12.253906 -9.679688 11.453125 -10.515625 C 10.660156 -11.359375 9.691406 -11.78125 8.546875 -11.78125 Z M 8.546875 -11.78125 "/></g></g></g><g fill="#022135" fill-opacity="1"><g transform="translate(261.306582, 80.148417)"><g><path d="M 15.140625 0 L 11.828125 0 L 5.015625 -9.125 L 5.015625 0 L 1.484375 0 L 1.484375 -14.8125 L 4.796875 -14.8125 L 11.640625 -5.671875 L 11.640625 -14.8125 L 15.140625 -14.8125 Z M 15.140625 0 "/></g></g></g><g fill="#022135" fill-opacity="1"><g transform="translate(277.932604, 80.148417)"><g/></g></g><g fill="#022135" fill-opacity="1"><g transform="translate(282.840025, 80.148417)"><g><path d="M 8.421875 -14.9375 C 9.523438 -14.9375 10.609375 -14.707031 11.671875 -14.25 C 12.734375 -13.800781 13.640625 -13.195312 14.390625 -12.4375 L 12.203125 -9.859375 C 11.722656 -10.453125 11.148438 -10.921875 10.484375 -11.265625 C 9.816406 -11.609375 9.148438 -11.78125 8.484375 -11.78125 C 7.316406 -11.78125 6.335938 -11.367188 5.546875 -10.546875 C 4.753906 -9.722656 4.359375 -8.703125 4.359375 -7.484375 C 4.359375 -6.242188 4.753906 -5.207031 5.546875 -4.375 C 6.335938 -3.539062 7.316406 -3.125 8.484375 -3.125 C 9.109375 -3.125 9.753906 -3.28125 10.421875 -3.59375 C 11.085938 -3.90625 11.679688 -4.328125 12.203125 -4.859375 L 14.40625 -2.53125 C 13.601562 -1.71875 12.65625 -1.0625 11.5625 -0.5625 C 10.46875 -0.0703125 9.378906 0.171875 8.296875 0.171875 C 6.066406 0.171875 4.207031 -0.550781 2.71875 -2 C 1.238281 -3.457031 0.5 -5.273438 0.5 -7.453125 C 0.5 -9.578125 1.253906 -11.351562 2.765625 -12.78125 C 4.273438 -14.21875 6.160156 -14.9375 8.421875 -14.9375 Z M 8.421875 -14.9375 "/></g></g></g><g fill="#022135" fill-opacity="1"><g transform="translate(297.477688, 80.148417)"><g><path d="M 11.3125 -2.734375 L 4.84375 -2.734375 L 3.765625 0 L -0.109375 0 L 6.28125 -14.8125 L 10.15625 -14.8125 L 16.390625 0 L 12.375 0 Z M 10.21875 -5.578125 L 8.109375 -11.0625 L 5.9375 -5.578125 Z M 10.21875 -5.578125 "/></g></g></g><g fill="#022135" fill-opacity="1"><g transform="translate(313.765264, 80.148417)"><g><path d="M 5.25 -3.15625 L 11.53125 -3.15625 L 11.53125 0 L 1.484375 0 L 1.484375 -14.8125 L 5.25 -14.8125 Z M 5.25 -3.15625 "/></g></g></g><g fill="#022135" fill-opacity="1"><g transform="translate(325.610771, 80.148417)"><g><path d="M 5.25 -3.15625 L 11.53125 -3.15625 L 11.53125 0 L 1.484375 0 L 1.484375 -14.8125 L 5.25 -14.8125 Z M 5.25 -3.15625 "/></g></g></g><g clip-path="url(#026f0a2be6)"><g clip-path="url(#9742daaa37)"><g clip-path="url(#96292be74f)"><path fill="#00609e" d="M 109.472656 64.257812 L 109.371094 24.832031 L 142.882812 43.96875 L 153.613281 37.722656 L 98.578125 6.296875 L 98.742188 70.503906 L 109.472656 64.257812 " fill-opacity="1" fill-rule="nonzero"/></g></g></g><g clip-path="url(#594846e7f0)"><g clip-path="url(#022c0cd61a)"><g clip-path="url(#57b381a5ce)"><g clip-path="url(#eb972e3873)"><g clip-path="url(#1ece0b6c3b)"><path fill="#52ace4" d="M 112.101562 29.039062 L 112.132812 41.429688 L 146.371094 60.980469 L 112.957031 80.4375 L 112.988281 92.828125 L 167.859375 60.878906 L 112.101562 29.039062 " fill-opacity="1" fill-rule="nonzero"/></g></g></g></g></g><g clip-path="url(#6574e96ab4)"><g clip-path="url(#a44f8dbf6b)"><g clip-path="url(#fc1d2a5f6f)"><path fill="#1f396d" d="M 130.648438 55.136719 L 96.457031 74.976562 L 96.355469 36.386719 L 85.597656 30.242188 L 85.761719 93.460938 L 141.3125 61.226562 L 130.648438 55.136719 " fill-opacity="1" fill-rule="nonzero"/></g></g></g><g clip-path="url(#3a8997a2f2)"><g clip-path="url(#c50b89a799)"><g clip-path="url(#cb6b91754c)"><path fill="#00609e" d="M 73.703125 50.902344 L 73.492188 90.328125 L 40.128906 70.925781 L 29.351562 77.085938 L 84.136719 108.949219 L 84.480469 44.742188 L 73.703125 50.902344 " fill-opacity="1" fill-rule="nonzero"/></g></g></g><g clip-path="url(#bb796ec208)"><g clip-path="url(#61b3e69fe0)"><g clip-path="url(#a7a28fd588)"><g clip-path="url(#aa7fac7ccf)"><g clip-path="url(#983e34f898)"><path fill="#52ace4" d="M 70.792969 86.101562 L 70.859375 73.707031 L 36.777344 53.886719 L 70.34375 34.699219 L 70.410156 22.304688 L 15.289062 53.816406 L 70.792969 86.101562 " fill-opacity="1" fill-rule="nonzero"/></g></g></g></g></g><g clip-path="url(#848313c172)"><g clip-path="url(#23dd5969e9)"><g clip-path="url(#7fac3bd8fd)"><path fill="#1f396d" d="M 52.453125 59.855469 L 86.800781 40.285156 L 86.59375 78.878906 L 97.308594 85.109375 L 97.644531 21.890625 L 41.839844 53.679688 L 52.453125 59.855469 " fill-opacity="1" fill-rule="nonzero"/></g></g></g></svg>